<?xml version="1.0" encoding="UTF-8"?>
<!DOCTYPE svg PUBLIC "-//W3C//DTD SVG 1.1//EN" "http://www.w3.org/Graphics/SVG/1.1/DTD/svg11.dtd">
<svg xmlns="http://www.w3.org/2000/svg" version="1.1" width="514px" height="164px" style="shape-rendering:geometricPrecision; text-rendering:geometricPrecision; image-rendering:optimizeQuality; fill-rule:evenodd; clip-rule:evenodd" xmlns:xlink="http://www.w3.org/1999/xlink">
<g><path style="opacity:0.893" fill="#656f84" d="M -0.5,-0.5 C 170.5,-0.5 341.5,-0.5 512.5,-0.5C 495.863,1.32226 478.863,2.15559 461.5,2C 467.492,4.65871 471.325,9.15871 473,15.5C 473.5,37.1641 473.667,58.8308 473.5,80.5C 482.915,80.0828 492.248,80.5828 501.5,82C 507.486,84.85 511.486,89.35 513.5,95.5C 513.5,99.5 513.5,103.5 513.5,107.5C 511.486,113.65 507.486,118.15 501.5,121C 492.248,122.417 482.915,122.917 473.5,122.5C 473.666,130.84 473.5,139.173 473,147.5C 471.325,153.841 467.492,158.341 461.5,161C 478.863,160.844 495.863,161.678 512.5,163.5C 341.5,163.5 170.5,163.5 -0.5,163.5C -0.5,162.833 -0.5,162.167 -0.5,161.5C 30.1685,161.667 60.8351,161.5 91.5,161C 85.5082,158.341 81.6748,153.841 80,147.5C 79.5003,139.173 79.3336,130.84 79.5,122.5C 57.8308,122.667 36.1641,122.5 14.5,122C 6.98409,119.649 1.98409,114.816 -0.5,107.5C -0.5,103.5 -0.5,99.5 -0.5,95.5C 0.704964,92.7659 2.20496,90.0993 4,87.5C 31.5,60 59,32.5 86.5,5C 88.1667,4 89.8333,3 91.5,2C 60.8351,1.50002 30.1685,1.33335 -0.5,1.5C -0.5,0.833333 -0.5,0.166667 -0.5,-0.5 Z M 109.5,2.5 C 150.998,1.33534 192.665,1.16867 234.5,2C 203.612,9.88847 183.445,29.0551 174,59.5C 165.615,98.0337 177.448,128.534 209.5,151C 217.287,155.707 225.62,159.04 234.5,161C 192.833,161.667 151.167,161.667 109.5,161C 115.492,158.341 119.325,153.841 121,147.5C 121.5,139.173 121.666,130.84 121.5,122.5C 129.84,122.666 138.173,122.5 146.5,122C 160.825,115.712 164.992,105.212 159,90.5C 156.044,85.7685 151.877,82.6019 146.5,81C 138.173,80.5003 129.84,80.3336 121.5,80.5C 121.667,58.8308 121.5,37.1641 121,15.5C 119.417,9.08894 115.584,4.7556 109.5,2.5 Z M 270.5,2.5 C 327.999,1.33478 385.665,1.16811 443.5,2C 441.833,3 440.167,4 438.5,5C 411,32.5 383.5,60 356,87.5C 350,96.8333 350,106.167 356,115.5C 358.234,117.7 360.734,119.533 363.5,121C 386.101,122.469 408.767,122.969 431.5,122.5C 431.334,130.84 431.5,139.173 432,147.5C 433.675,153.841 437.508,158.341 443.5,161C 385.833,161.667 328.167,161.667 270.5,161C 301.388,153.112 321.555,133.945 331,103.5C 339.385,64.9663 327.552,34.4663 295.5,12C 287.776,7.14882 279.443,3.98215 270.5,2.5 Z M 95.5,3.5 C 114.935,3.75455 121.768,13.0879 116,31.5C 110.67,38.9014 103.503,41.4014 94.5,39C 82.4392,33.0234 79.2726,23.8568 85,11.5C 87.8308,7.82094 91.3308,5.15427 95.5,3.5 Z M 246.5,3.5 C 264.317,1.81651 272.15,9.81651 270,27.5C 265.35,37.5746 257.516,41.4079 246.5,39C 236.425,34.3496 232.592,26.5162 235,15.5C 236.08,13.0038 237.414,10.6705 239,8.5C 241.479,6.68589 243.979,5.01922 246.5,3.5 Z M 447.5,3.5 C 466.935,3.75455 473.768,13.0879 468,31.5C 462.67,38.9014 455.503,41.4014 446.5,39C 434.439,33.0234 431.273,23.8568 437,11.5C 439.831,7.82094 443.331,5.15427 447.5,3.5 Z M 234.5,4.5 C 235.873,4.34332 237.207,4.50999 238.5,5C 230.193,14.515 229.36,24.6817 236,35.5C 238.234,37.6998 240.734,39.5331 243.5,41C 227,45.5 216.5,56 212,72.5C 206.482,62.3282 197.982,58.4948 186.5,61C 182.49,62.3428 178.99,64.5095 176,67.5C 179.82,45.0438 191.32,27.5438 210.5,15C 218.218,10.6357 226.218,7.13573 234.5,4.5 Z M 266.5,5.5 C 282.176,7.38151 295.843,14.0482 307.5,25.5C 319.213,37.2611 326.38,51.2611 329,67.5C 319.485,59.1932 309.318,58.3599 298.5,65C 296.3,67.2336 294.467,69.7336 293,72.5C 288.5,56 278,45.5 261.5,41C 273.479,33.7229 276.646,23.5563 271,10.5C 269.951,8.3825 268.451,6.71583 266.5,5.5 Z M 78.5,16.5 C 79.6619,33.9952 79.8286,51.6619 79,69.5C 75.5,73 72,76.5 68.5,80C 50.8333,80.6667 33.1667,80.6667 15.5,80C 36.7017,58.9653 57.7017,37.7986 78.5,16.5 Z M 430.5,16.5 C 431.662,33.9952 431.829,51.6619 431,69.5C 427.5,73 424,76.5 420.5,80C 402.833,80.6667 385.167,80.6667 367.5,80C 388.702,58.9653 409.702,37.7986 430.5,16.5 Z M 81.5,32.5 C 87.3555,40.5202 95.3555,44.0202 105.5,43C 97.6667,50.8333 89.8333,58.6667 82,66.5C 81.5001,55.1716 81.3335,43.8382 81.5,32.5 Z M 118.5,32.5 C 119.496,48.3246 119.83,64.3246 119.5,80.5C 106.833,80.5 94.1667,80.5 81.5,80.5C 81.335,77.1501 81.5017,73.8168 82,70.5C 94.7559,58.2472 106.923,45.5806 118.5,32.5 Z M 433.5,32.5 C 439.355,40.5202 447.355,44.0202 457.5,43C 449.667,50.8333 441.833,58.6667 434,66.5C 433.5,55.1716 433.333,43.8382 433.5,32.5 Z M 470.5,32.5 C 471.496,48.3246 471.83,64.3246 471.5,80.5C 458.833,80.5 446.167,80.5 433.5,80.5C 433.335,77.1501 433.502,73.8168 434,70.5C 446.734,58.2678 458.901,45.6012 470.5,32.5 Z M 243.5,43.5 C 266.992,40.6502 282.492,50.3169 290,72.5C 293.338,96.0089 283.838,111.509 261.5,119C 237.991,122.338 222.491,112.838 215,90.5C 211.785,66.9038 221.285,51.2371 243.5,43.5 Z M 186.5,63.5 C 204.317,61.8165 212.15,69.8165 210,87.5C 205.35,97.5746 197.516,101.408 186.5,99C 176.425,94.3496 172.592,86.5162 175,75.5C 176.08,73.0038 177.414,70.6705 179,68.5C 181.479,66.6859 183.979,65.0192 186.5,63.5 Z M 306.5,63.5 C 324.317,61.8165 332.15,69.8165 330,87.5C 325.35,97.5746 317.516,101.408 306.5,99C 296.425,94.3496 292.592,86.5162 295,75.5C 296.08,73.0038 297.414,70.6705 299,68.5C 301.479,66.6859 303.979,65.0192 306.5,63.5 Z M 78.5,73.5 C 79.4682,75.6074 79.8016,77.9407 79.5,80.5C 77.1432,80.6633 74.8098,80.4966 72.5,80C 74.7059,77.9633 76.7059,75.7966 78.5,73.5 Z M 430.5,73.5 C 431.468,75.6074 431.802,77.9407 431.5,80.5C 429.143,80.6633 426.81,80.4966 424.5,80C 426.706,77.9633 428.706,75.7966 430.5,73.5 Z M 31.5,83.5 C 42.6591,82.3407 53.9924,82.1741 65.5,83C 57.6667,90.8333 49.8333,98.6667 42,106.5C 43.1817,96.4911 39.6817,88.8244 31.5,83.5 Z M 69.5,82.5 C 72.8333,82.5 76.1667,82.5 79.5,82.5C 79.5,95.1667 79.5,107.833 79.5,120.5C 63.4965,120.667 47.4965,120.5 31.5,120C 44.6724,107.994 57.3391,95.4941 69.5,82.5 Z M 81.5,82.5 C 94.1667,82.5 106.833,82.5 119.5,82.5C 119.5,95.1667 119.5,107.833 119.5,120.5C 106.833,120.5 94.1667,120.5 81.5,120.5C 81.5,107.833 81.5,95.1667 81.5,82.5 Z M 121.5,82.5 C 124.187,82.3359 126.854,82.5026 129.5,83C 126.333,84.8333 123.833,87.3333 122,90.5C 121.503,87.854 121.336,85.1873 121.5,82.5 Z M 383.5,83.5 C 394.659,82.3407 405.992,82.1741 417.5,83C 409.667,90.8333 401.833,98.6667 394,106.5C 395.182,96.4911 391.682,88.8244 383.5,83.5 Z M 421.5,82.5 C 424.833,82.5 428.167,82.5 431.5,82.5C 431.5,95.1667 431.5,107.833 431.5,120.5C 415.497,120.667 399.497,120.5 383.5,120C 396.672,107.994 409.339,95.4941 421.5,82.5 Z M 433.5,82.5 C 446.167,82.5 458.833,82.5 471.5,82.5C 471.5,95.1667 471.5,107.833 471.5,120.5C 458.833,120.5 446.167,120.5 433.5,120.5C 433.5,107.833 433.5,95.1667 433.5,82.5 Z M 473.5,82.5 C 476.187,82.3359 478.854,82.5026 481.5,83C 478.333,84.8333 475.833,87.3333 474,90.5C 473.503,87.854 473.336,85.1873 473.5,82.5 Z M 14.5,83.5 C 32.3171,81.8165 40.1505,89.8165 38,107.5C 32.0475,119.546 22.8808,122.713 10.5,117C 0.65585,107.737 -0.0108164,97.9037 8.5,87.5C 10.5654,86.1433 12.5654,84.81 14.5,83.5 Z M 134.5,83.5 C 152.317,81.8165 160.15,89.8165 158,107.5C 153.35,117.575 145.516,121.408 134.5,119C 124.425,114.35 120.592,106.516 123,95.5C 124.08,93.0038 125.414,90.6705 127,88.5C 129.479,86.6859 131.979,85.0192 134.5,83.5 Z M 366.5,83.5 C 384.317,81.8165 392.15,89.8165 390,107.5C 384.048,119.546 374.881,122.713 362.5,117C 354.174,109.914 352.34,101.414 357,91.5C 359.735,88.2308 362.901,85.5641 366.5,83.5 Z M 486.5,83.5 C 504.317,81.8165 512.15,89.8165 510,107.5C 505.35,117.575 497.516,121.408 486.5,119C 476.425,114.35 472.592,106.516 475,95.5C 476.08,93.0038 477.414,90.6705 479,88.5C 481.479,86.6859 483.979,85.0192 486.5,83.5 Z M 211.5,90.5 C 216.318,106.817 226.985,117.317 243.5,122C 233.328,127.518 229.495,136.018 232,147.5C 233.343,151.51 235.509,155.01 238.5,158C 210.065,152.58 190.232,136.414 179,109.5C 177.348,104.901 176.348,100.235 176,95.5C 185.515,103.807 195.682,104.64 206.5,98C 208.808,95.8723 210.474,93.3723 211.5,90.5 Z M 292.5,90.5 C 298.252,100.537 306.919,104.37 318.5,102C 322.51,100.657 326.01,98.4905 329,95.5C 323.089,125.089 305.923,145.256 277.5,156C 273.892,157.323 270.225,157.989 266.5,158C 274.807,148.485 275.64,138.318 269,127.5C 266.766,125.3 264.266,123.467 261.5,122C 278.097,117.57 288.431,107.07 292.5,90.5 Z M 121.5,112.5 C 123.641,115.472 126.308,117.972 129.5,120C 126.854,120.497 124.187,120.664 121.5,120.5C 121.5,117.833 121.5,115.167 121.5,112.5 Z M 473.5,112.5 C 475.641,115.472 478.308,117.972 481.5,120C 478.854,120.497 476.187,120.664 473.5,120.5C 473.5,117.833 473.5,115.167 473.5,112.5 Z M 81.5,122.5 C 84.1873,122.336 86.854,122.503 89.5,123C 86.3333,124.833 83.8333,127.333 82,130.5C 81.5026,127.854 81.3359,125.187 81.5,122.5 Z M 111.5,123.5 C 113.948,122.527 116.615,122.194 119.5,122.5C 119.664,125.187 119.497,127.854 119,130.5C 117.285,127.283 114.785,124.95 111.5,123.5 Z M 433.5,122.5 C 436.187,122.336 438.854,122.503 441.5,123C 438.333,124.833 435.833,127.333 434,130.5C 433.503,127.854 433.336,125.187 433.5,122.5 Z M 463.5,123.5 C 465.948,122.527 468.615,122.194 471.5,122.5C 471.664,125.187 471.497,127.854 471,130.5C 469.285,127.283 466.785,124.95 463.5,123.5 Z M 94.5,123.5 C 112.317,121.817 120.15,129.817 118,147.5C 113.35,157.575 105.516,161.408 94.5,159C 84.4254,154.35 80.5921,146.516 83,135.5C 84.0804,133.004 85.4138,130.67 87,128.5C 89.4795,126.686 91.9795,125.019 94.5,123.5 Z M 246.5,123.5 C 264.317,121.817 272.15,129.817 270,147.5C 265.35,157.575 257.516,161.408 246.5,159C 236.425,154.35 232.592,146.516 235,135.5C 236.08,133.004 237.414,130.67 239,128.5C 241.479,126.686 243.979,125.019 246.5,123.5 Z M 446.5,123.5 C 464.317,121.817 472.15,129.817 470,147.5C 465.35,157.575 457.516,161.408 446.5,159C 436.425,154.35 432.592,146.516 435,135.5C 436.08,133.004 437.414,130.67 439,128.5C 441.479,126.686 443.979,125.019 446.5,123.5 Z"/></g>
</svg>
